Misunderstood. Misplaced. Mismatched.

When Andrew Sterling, a successful black urbanite writer buys a vacation home on a resort in New England the police mistake him for a burglar. After surrounding his home with armed men, Chief Tolliver realizes his mistake and to avoid the bad publicity offers a thief in his jail, Amos Odell a deal. Amos is to pretend to take Andrew prisoner and hold him for ransom but let him go and escape. Amos and Andrew suddenly realize that the Chief's problems are all gone if the two of them both die in a gun battle. The worst partnership in film history then tries to get away from the local police.


IMDB: http://www.imdb.com/title/tt0106266/

 
http://www.abload.de/img/cover6ood.jpg
 
http://www.abload.de/img/poster4ns5c.jpg
 
http://www.abload.de/img/poster1hqib.jpg


General
Complete name                    : Amos.and.Andrew.1993.DVDRip.XviD.AC3-SNS.avi
Format                           : AVI
Format/Info                      : Audio Video Interleave
File size                        : 1.46 GiB
Duration                         : 1h 31mn
Overall bit rate                 : 2 277 Kbps
Writing application              : VirtualDubMod 1.5.4.1 (build 2178/release)
Writing library                  : VirtualDubMod build 2178/release

Video
ID                               : 0
Format                           : MPEG-4 Visual
Format profile                   : Advanced Simple@L5
Format settings, BVOP            : No
Format settings, QPel            : No
Format settings, GMC             : No warppoints
Format settings, Matrix          : Custom
Codec ID                         : XVID
Codec ID/Hint                    : XviD
Duration                         : 1h 31mn
Bit rate                         : 2 078 Kbps
Width                            : 720 pixels
Height                           : 544 pixels
Display aspect ratio             : 4:3
Frame rate                       : 25.000 fps
Resolution                       : 8 bits
Colorimetry                      : 4:2:0
Scan type                        : Progressive
Bits/(Pixel*Frame)               : 0.212
Stream size                      : 1.33 GiB (1366.20 MiB) (92%)
Writing library                  : XviD 1.2.1 (UTC 2008-12-04)

Audio
ID                               : 1
Format                           : AC-3
Format/Info                      : Audio Coding 3
Format_Settings_ModeExtension    : CM (complete main)
Codec ID                         : 2000
Duration                         : 1h 31mn
Bit rate mode                    : Constant
Bit rate                         : 192 Kbps
Channel(s)                       : 2 channels
Channel positions                : Front: L R
Sampling rate                    : 48.0 KHz
Stream size                      : 125.93 MiB (8%)
Alignment                        : Aligned on interleaves
Interleave, duration             : 96 ms (2.40 video frames)
Interleave, preload duration     : 96 ms
Language                         : English

Source: DVD5, PAL, progressive
Source resolution: 720x576
Source aspect ratio: 4:3
